<?xml version="1.0" standalone="no"?>
<!DOCTYPE svg PUBLIC "-//W3C//DTD SVG 20010904//EN"
 "http://www.w3.org/TR/2001/REC-SVG-20010904/DTD/svg10.dtd">
<svg version="1.0" xmlns="http://www.w3.org/2000/svg"
 width="3000.000000pt" height="3000.000000pt" viewBox="0 0 3000.000000 3000.000000"
 preserveAspectRatio="xMidYMid meet">

<g transform="translate(0.000000,3000.000000) scale(0.100000,-0.100000)"
fill="#000000" stroke="none">
<path d="M9490 20280 c-57 -48 -120 -124 -120 -145 0 -7 -8 -12 -17 -11 -10 0
-19 -8 -22 -22 -3 -13 -10 -23 -16 -23 -12 1 -26 -49 -18 -62 13 -21 143 -193
158 -208 8 -9 15 -20 15 -25 0 -6 16 -25 35 -44 19 -19 35 -39 35 -45 0 -5 14
-21 30 -35 17 -14 30 -30 30 -36 0 -6 11 -21 25 -34 14 -13 25 -27 25 -32 0
-5 14 -22 30 -38 17 -16 30 -32 30 -35 0 -3 47 -66 105 -140 58 -74 105 -138
105 -144 0 -5 4 -11 8 -13 4 -1 21 -20 36 -40 29 -38 46 -42 46 -9 0 10 9 29
19 43 11 13 23 36 26 50 4 14 21 40 38 59 18 19 49 54 69 79 42 53 144 160
152 160 3 0 16 10 29 23 13 12 38 34 55 49 31 25 44 68 21 68 -6 0 -33 17 -59
38 -26 20 -58 44 -70 52 -12 8 -42 30 -66 48 -23 17 -45 32 -49 32 -5 0 -57
39 -135 100 -14 11 -40 27 -57 35 -18 9 -33 20 -33 25 0 6 -7 10 -15 10 -9 0
-18 7 -21 15 -3 8 -14 17 -24 20 -10 3 -33 19 -52 35 -18 16 -37 30 -43 30 -5
0 -23 12 -40 26 -16 15 -41 34 -55 43 -35 22 -41 27 -75 57 -16 14 -42 33 -57
42 -16 9 -28 20 -28 24 0 14 -15 8 -50 -22z"/>
<path d="M21230 19409 c0 -7 -14 -10 -35 -7 -23 3 -35 0 -35 -8 0 -19 20 -28
32 -16 6 6 24 8 39 5 25 -5 29 -2 29 16 0 12 -6 21 -15 21 -8 0 -15 -5 -15
-11z"/>
<path d="M21290 19396 c0 -10 9 -16 21 -16 24 0 21 23 -4 28 -10 2 -17 -3 -17
-12z"/>
<path d="M20615 19390 c-3 -5 -1 -10 4 -10 6 0 11 5 11 10 0 6 -2 10 -4 10 -3
0 -8 -4 -11 -10z"/>
<path d="M21750 19380 c0 -7 -13 -9 -33 -5 -24 5 -37 2 -46 -9 -16 -19 -44
-20 -72 -3 -17 10 -23 10 -26 0 -7 -18 -62 -16 -69 2 -9 22 -31 18 -37 -5 -5
-20 -27 -28 -27 -10 0 6 -11 10 -24 10 -14 0 -28 5 -31 10 -3 6 -15 10 -25 10
-15 0 -21 -9 -26 -40 -5 -28 -12 -40 -23 -40 -14 0 -14 2 -1 10 12 8 11 10 -7
10 -12 0 -25 5 -28 10 -11 17 -42 11 -48 -10 -4 -17 -13 -20 -54 -19 -46 2
-47 2 -13 9 l35 7 -32 2 c-23 1 -37 -6 -52 -25 -12 -15 -21 -33 -21 -40 0 -8
-5 -14 -10 -14 -6 0 -16 -12 -23 -27 -6 -16 -16 -31 -20 -34 -12 -9 -47 1 -47
12 0 15 -30 10 -37 -7 -3 -8 -15 -14 -27 -13 -36 2 -41 0 -55 -31 -9 -21 -22
-33 -42 -37 -22 -4 -29 -11 -29 -29 0 -12 5 -26 10 -29 20 -12 10 -25 -19 -25
-16 0 -36 -7 -45 -15 -18 -18 -24 -19 -41 -1 -12 11 -10 15 11 26 13 8 24 19
24 27 0 12 -4 14 -30 17 -6 1 -16 -10 -23 -24 -11 -22 -19 -25 -55 -22 -39 3
-42 2 -42 -22 0 -23 -4 -26 -37 -27 -53 -2 -58 -3 -60 -14 -4 -14 328 -10 337
4 3 6 60 14 131 17 78 4 132 11 146 20 14 9 51 14 100 14 43 0 94 5 113 11 19
6 89 14 155 19 66 5 140 16 164 24 24 9 75 16 113 16 38 0 84 7 105 15 20 9
68 15 112 15 42 1 96 6 121 11 25 6 90 15 145 20 55 5 106 11 115 15 8 3 76
11 150 18 81 6 133 15 130 21 -3 5 -45 20 -95 32 -49 13 -99 27 -110 32 -21
10 -60 18 -140 27 -27 4 -56 11 -62 16 -7 6 -24 7 -38 4 -17 -4 -30 -1 -44 13
-14 14 -32 19 -70 18 -28 -1 -51 -5 -51 -9 0 -11 -34 -10 -45 1 -35 33 -89 51
-155 51 -42 0 -70 -4 -70 -10z"/>
<path d="M20720 19360 c0 -5 7 -10 15 -10 8 0 15 5 15 10 0 6 -7 10 -15 10 -8
0 -15 -4 -15 -10z"/>
<path d="M20480 19350 c0 -5 14 -10 30 -10 17 0 30 5 30 10 0 6 -13 10 -30 10
-16 0 -30 -4 -30 -10z"/>
<path d="M20345 19291 c-7 -12 12 -24 25 -16 11 7 4 25 -10 25 -5 0 -11 -4
-15 -9z"/>
<path d="M21000 19230 c0 -11 2 -20 4 -20 2 0 6 9 9 20 3 11 1 20 -4 20 -5 0
-9 -9 -9 -20z"/>
<path d="M20538 19133 c-19 -5 -26 -53 -8 -53 6 0 10 7 10 15 0 8 7 15 15 15
8 0 15 7 15 15 0 15 -2 16 -32 8z"/>
<path d="M20410 19055 c0 -20 -34 -36 -67 -33 -20 2 -28 -2 -31 -16 -5 -24 7
-35 41 -38 39 -3 33 -18 -7 -18 -21 0 -36 6 -40 15 -9 25 -75 -8 -76 -37 0
-10 247 -8 280 2 21 6 17 8 -28 15 l-54 8 7 58 c6 50 5 59 -9 59 -9 0 -16 -7
-16 -15z"/>
<path d="M20480 19055 c0 -8 7 -15 15 -15 8 0 15 7 15 15 0 8 -7 15 -15 15 -8
0 -15 -7 -15 -15z"/>
<path d="M20550 19055 c0 -8 5 -15 10 -15 6 0 10 7 10 15 0 8 -4 15 -10 15 -5
0 -10 -7 -10 -15z"/>
<path d="M18680 19001 c0 -11 5 -23 10 -26 6 -4 10 5 10 19 0 14 -4 26 -10 26
-5 0 -10 -9 -10 -19z"/>
<path d="M20167 18990 c-9 -11 -26 -20 -37 -20 -16 0 -20 -7 -20 -30 0 -27 -4
-30 -42 -37 -41 -8 -39 -8 32 -13 41 -3 83 -3 93 -1 30 6 18 21 -18 21 -24 0
-35 5 -35 15 0 8 5 15 10 15 6 0 10 6 10 14 0 17 27 28 51 21 24 -8 26 20 3
29 -24 9 -28 8 -47 -14z"/>
<path d="M17501 18914 c0 -11 3 -14 6 -6 3 7 2 16 -1 19 -3 4 -6 -2 -5 -13z"/>
<path d="M17520 18880 c0 -22 4 -40 9 -40 14 0 23 37 16 60 -11 34 -25 22 -25
-20z"/>
<path d="M20275 18900 c3 -5 8 -10 11 -10 2 0 4 5 4 10 0 6 -5 10 -11 10 -5 0
-7 -4 -4 -10z"/>
<path d="M18722 18875 c0 -16 2 -22 5 -12 2 9 2 23 0 30 -3 6 -5 -1 -5 -18z"/>
<path d="M19815 18871 c-49 -7 -49 -7 35 -15 99 -9 175 -5 175 9 0 12 -136 15
-210 6z"/>
<path d="M19595 18830 c3 -5 40 -10 81 -10 43 0 74 4 74 10 0 6 -34 10 -81 10
-51 0 -78 -4 -74 -10z"/>
<path d="M16743 18790 c-3 -11 -13 -20 -23 -20 -29 0 -50 -11 -50 -26 0 -20
52 -18 89 4 33 18 41 46 15 56 -23 9 -25 8 -31 -14z"/>
<path d="M18750 18770 c0 -36 2 -39 33 -44 55 -9 190 -14 224 -9 67 11 18 24
-85 23 -142 -2 -144 -1 -138 9 3 5 0 11 -8 14 -9 4 -12 14 -9 26 3 12 1 21 -6
21 -6 0 -11 -17 -11 -40z"/>
<path d="M19365 18791 c17 -4 55 -4 85 -1 50 7 48 7 -30 8 -54 0 -74 -3 -55
-7z"/>
<path d="M25335 18730 c-202 -105 -505 -266 -555 -294 -25 -14 -54 -30 -65
-35 -12 -5 -60 -32 -107 -60 -48 -28 -89 -51 -92 -51 -5 0 -339 -248 -431
-320 -74 -58 -185 -140 -189 -140 -3 0 -34 -19 -70 -42 -63 -42 -91 -59 -203
-128 l-53 -32 0 -96 c0 -79 4 -103 20 -130 13 -21 20 -50 20 -82 0 -28 5 -50
10 -50 6 0 10 12 10 26 0 21 8 29 40 41 22 9 42 24 45 33 6 18 38 28 150 49
33 6 61 15 63 21 2 5 14 10 27 10 13 0 30 8 37 19 7 10 28 22 46 25 17 4 32
11 32 15 0 4 16 13 35 21 19 8 35 20 35 28 0 10 7 12 24 8 14 -3 38 1 58 11
18 9 44 22 58 29 14 7 28 26 33 44 7 28 11 31 37 25 37 -8 70 2 70 21 0 8 4
14 9 14 5 0 11 10 14 21 4 16 11 20 26 16 20 -5 27 7 22 36 0 4 15 7 34 7 31
0 35 3 35 26 0 22 4 25 21 21 20 -5 28 3 33 40 2 13 10 17 29 15 17 -2 27 1
27 10 1 24 48 68 73 68 20 0 26 6 31 35 4 19 12 35 19 35 15 0 47 34 76 82 12
21 33 46 47 57 13 10 24 22 24 26 0 4 10 18 23 31 60 61 67 71 67 82 0 7 3 12
8 12 7 1 52 39 132 113 19 18 52 45 72 61 21 15 40 36 43 46 3 11 14 21 24 25
9 3 31 24 47 46 16 23 56 69 88 101 46 47 56 62 45 69 -19 12 -7 16 -154 -61z"/>
<path d="M11598 18753 c-13 -16 -69 -70 -124 -122 -92 -88 -127 -125 -318
-334 -39 -43 -82 -91 -96 -106 -126 -136 -179 -201 -180 -219 0 -12 133 -196
157 -217 6 -5 20 -24 30 -40 30 -49 97 -135 105 -135 4 0 8 -5 8 -12 0 -6 7
-18 15 -27 25 -27 89 -107 105 -131 8 -12 38 -52 65 -89 28 -36 69 -93 92
-126 47 -69 121 -155 133 -155 5 0 41 43 82 95 224 292 411 492 820 876 64 60
90 90 85 101 -4 13 -149 121 -218 163 -9 6 -36 25 -60 42 -137 101 -212 155
-279 201 -160 111 -276 193 -291 205 -43 34 -80 57 -92 57 -8 0 -25 -12 -39
-27z"/>
<path d="M17565 18759 c6 -30 15 -37 15 -11 0 11 -4 23 -9 27 -6 3 -8 -4 -6
-16z"/>
<path d="M19140 18760 c0 -13 90 -13 110 0 11 7 -3 10 -47 10 -36 0 -63 -4
-63 -10z"/>
<path d="M17160 18740 c0 -5 7 -10 15 -10 8 0 15 5 15 10 0 6 -7 10 -15 10 -8
0 -15 -4 -15 -10z"/>
<path d="M16630 18661 c0 -73 7 -104 20 -96 11 7 18 -20 18 -64 1 -18 3 -36 6
-39 3 -3 6 4 6 15 0 17 6 21 33 19 30 -1 32 1 32 34 0 35 1 35 46 38 46 3 47
3 53 -33 8 -41 18 -45 34 -10 6 14 18 25 25 25 8 0 13 10 13 21 -1 12 5 24 11
26 15 5 33 -36 33 -73 0 -13 4 -24 9 -24 5 0 16 -3 25 -6 10 -4 16 -1 16 9 0
16 20 27 51 27 10 0 19 5 19 10 0 6 -9 10 -19 10 -41 0 -52 11 -45 46 l6 33
-67 -3 c-46 -2 -71 1 -80 10 -7 8 -22 14 -32 14 -35 0 -61 12 -66 30 -4 15
-12 17 -51 13 -39 -5 -49 -2 -65 16 -10 11 -21 21 -25 21 -3 0 -6 -31 -6 -69z"/>
<path d="M17195 18710 c-4 -14 -15 -20 -36 -20 -17 0 -29 -5 -29 -13 0 -16
-36 -47 -55 -47 -8 0 -15 -5 -15 -11 0 -13 38 -49 51 -49 4 0 11 -9 14 -20 4
-13 15 -20 31 -20 27 0 32 15 9 24 -9 3 -15 18 -15 36 0 38 27 52 47 24 12
-16 15 -17 23 -4 5 8 10 19 10 23 0 5 5 5 10 2 6 -4 10 13 10 44 0 47 -2 51
-24 51 -16 0 -27 -7 -31 -20z"/>
<path d="M15538 18690 c-6 -42 7 -60 28 -38 15 14 16 22 6 43 -15 33 -29 32
-34 -5z"/>
<path d="M18668 18702 c-10 -2 -18 -8 -18 -13 0 -12 107 -12 115 1 3 6 0 10
-7 11 -7 0 -26 1 -43 3 -16 1 -38 1 -47 -2z"/>
<path d="M17030 18665 c0 -41 3 -42 30 -15 28 28 26 50 -5 50 -22 0 -25 -4
-25 -35z"/>
<path d="M15344 18625 c-3 -14 -9 -25 -13 -26 -30 -3 -46 -10 -49 -18 -5 -16
-33 -13 -47 5 -14 19 -55 11 -55 -11 0 -8 -9 -17 -20 -20 -23 -7 -27 -25 -5
-25 8 0 15 -7 15 -15 0 -8 -7 -15 -15 -15 -8 0 -15 5 -15 10 0 12 -37 13 -42
1 -1 -5 -14 -11 -28 -13 -17 -2 -26 2 -28 15 -2 10 0 17 5 16 21 -4 33 2 33
16 0 21 -52 15 -58 -7 -4 -19 -36 -33 -51 -24 -5 4 -11 1 -13 -4 -2 -6 -31
-12 -66 -13 -52 -1 -62 -4 -62 -19 0 -10 6 -18 14 -18 9 0 14 -9 13 -20 -1
-19 -27 -30 -27 -11 0 9 -49 18 -152 28 -43 4 -58 2 -58 -7 0 -7 -8 -10 -20
-7 -11 3 -20 1 -20 -5 0 -6 -11 -8 -25 -4 -31 8 -65 -12 -65 -39 0 -47 -12
-65 -41 -65 -31 0 -41 23 -14 34 16 6 21 56 5 56 -13 0 -28 -32 -23 -47 3 -7
-2 -16 -11 -19 -9 -3 -16 -15 -16 -26 0 -18 -5 -20 -32 -15 -18 3 -41 8 -50
12 -15 6 -18 2 -18 -24 0 -26 -4 -31 -25 -31 -18 0 -25 5 -25 20 0 25 -35 28
-44 4 -5 -13 -15 -15 -41 -11 -19 3 -37 2 -40 -3 -3 -4 -21 -7 -40 -6 -32 1
-35 -1 -35 -26 0 -18 -5 -28 -15 -28 -8 0 -15 7 -15 15 0 8 -9 15 -20 15 -25
0 -26 -15 -2 -30 16 -10 15 -10 -3 -8 -55 6 -105 -35 -105 -87 0 -19 -4 -35
-10 -35 -5 0 -10 11 -10 24 0 22 -16 36 -41 36 -5 0 -9 -18 -9 -40 0 -42 -24
-66 -40 -40 -6 9 -13 9 -28 1 -14 -7 -23 -8 -27 -1 -9 15 -19 12 -45 -10 -13
-11 -31 -20 -42 -20 -10 0 -18 -6 -18 -14 0 -17 -31 -29 -52 -21 -9 3 -33 -3
-55 -15 -32 -16 -46 -19 -67 -10 -40 15 -46 13 -46 -17 0 -25 -3 -28 -32 -27
-42 1 -89 -12 -100 -28 -4 -7 -6 -23 -3 -35 4 -18 1 -23 -15 -23 -11 0 -20 5
-20 10 0 14 -43 13 -58 -2 -7 -7 -12 -22 -12 -35 0 -27 -12 -29 -34 -8 -20 20
-26 19 -26 -5 0 -14 -7 -20 -24 -20 -13 0 -29 -7 -37 -16 -7 -8 -25 -22 -40
-30 -15 -7 -30 -23 -34 -34 -5 -15 -15 -20 -41 -20 -24 0 -34 -5 -34 -15 0 -8
-7 -15 -15 -15 -8 0 -15 -5 -15 -11 0 -8 -12 -10 -34 -6 -32 5 -35 3 -41 -24
-4 -17 -9 -28 -12 -25 -8 8 -46 -14 -60 -35 -8 -10 -21 -15 -33 -12 -15 4 -20
0 -20 -15 0 -11 -7 -25 -15 -32 -8 -7 -15 -9 -15 -6 0 4 -7 1 -15 -8 -8 -8
-15 -19 -15 -24 0 -11 -43 -52 -55 -52 -5 0 -25 -17 -45 -38 -19 -21 -43 -41
-52 -45 -10 -3 -18 -15 -18 -26 0 -21 -18 -31 -60 -31 -20 0 -33 -7 -41 -22
-6 -11 -23 -32 -37 -45 -35 -32 -49 -64 -42 -93 4 -14 5 -92 4 -175 -2 -98 2
-172 11 -215 32 -152 46 -248 43 -285 l-3 -40 -80 -31 c-107 -42 -148 -60
-226 -100 -88 -45 -106 -45 -114 4 -11 70 -16 83 -25 77 -15 -9 -13 -122 2
-127 7 -3 13 -26 15 -54 3 -70 4 -73 27 -80 41 -13 145 -4 536 47 36 5 148 12
250 15 150 5 195 4 236 -9 33 -10 56 -12 67 -5 22 12 22 64 1 76 -10 6 -18 28
-21 63 -3 30 -9 56 -14 57 -12 5 -11 40 1 44 17 5 -12 68 -32 68 -12 0 -18 8
-18 24 0 16 -7 26 -22 29 -21 6 -20 7 11 35 23 20 41 27 57 24 17 -3 24 0 24
12 0 12 -6 15 -25 10 -14 -3 -25 -2 -25 3 0 15 -53 14 -71 -3 -45 -40 -70 1
-88 146 -12 100 -28 193 -42 236 -5 17 -11 87 -14 155 -3 68 -7 153 -10 189
-2 36 0 71 5 79 9 16 7 15 211 120 79 40 156 82 171 92 14 11 32 19 40 19 7 0
37 16 67 35 83 55 121 45 121 -32 0 -23 4 -64 10 -90 5 -26 11 -96 14 -155 2
-59 9 -115 14 -125 6 -10 13 -40 17 -68 4 -27 12 -59 18 -70 6 -11 16 -41 21
-67 6 -25 15 -46 20 -46 13 0 26 -25 21 -42 -2 -8 0 -31 4 -50 6 -24 9 -28 10
-12 1 12 7 22 15 22 7 0 16 9 19 20 6 24 47 28 47 5 0 -8 6 -15 13 -16 6 -1
32 -2 56 -3 25 -1 47 -8 49 -14 4 -14 72 -16 72 -2 0 18 29 11 53 -12 l22 -23
3 25 c6 38 21 50 63 50 35 0 39 3 39 25 0 22 3 24 30 19 26 -6 30 -4 30 15 0
12 -6 21 -15 21 -8 0 -15 9 -15 20 0 16 7 20 35 20 28 0 35 -4 35 -20 0 -11 7
-20 15 -20 10 0 15 10 15 34 0 21 6 36 15 40 8 3 15 1 15 -4 0 -6 4 -10 9 -10
14 0 18 40 9 75 -5 17 -13 62 -19 100 -6 39 -16 90 -23 115 -23 76 -44 190
-57 295 -34 298 -37 340 -26 353 11 14 270 142 287 142 5 0 36 13 67 29 32 17
74 37 93 45 19 9 42 20 50 24 44 26 80 42 94 42 8 0 23 8 33 19 10 10 29 21
43 24 14 3 45 13 69 22 24 9 49 14 56 12 12 -5 42 -159 56 -295 15 -148 37
-285 52 -332 36 -108 47 -149 47 -173 0 -35 10 -57 25 -57 19 0 24 -22 18 -69
-7 -52 7 -53 54 -4 30 31 38 34 54 25 25 -16 29 -15 29 8 0 11 -4 20 -10 20
-16 0 -12 27 11 71 24 48 43 46 47 -4 2 -27 8 -37 20 -37 22 0 37 11 45 33 3
9 13 17 20 17 8 0 20 7 27 15 7 8 19 15 26 15 24 0 54 33 60 67 6 34 30 45 40
18 10 -25 24 -17 24 14 0 18 6 31 17 35 15 6 32 -8 33 -26 0 -5 14 -8 30 -8
27 0 30 3 30 30 0 23 -4 30 -20 30 -14 0 -20 7 -20 21 0 11 4 18 9 15 15 -10
39 4 46 27 l8 22 4 -23 c3 -13 -1 -30 -7 -38 -15 -16 -10 -17 24 -5 18 7 23
15 19 29 -3 14 1 22 16 27 12 3 21 13 21 21 0 8 5 14 11 14 6 0 18 9 27 21 19
23 52 17 52 -10 0 -12 2 -13 9 -3 4 7 6 24 3 38 -4 21 -1 24 26 24 29 0 92 48
92 71 0 15 -28 10 -38 -7 -6 -11 -21 -14 -52 -12 -49 3 -50 5 -70 123 -5 28
-13 64 -18 80 -6 17 -13 63 -16 103 -4 40 -13 89 -21 109 -8 19 -15 55 -15 78
0 23 -3 63 -6 88 -6 44 -8 45 -44 49 -21 2 -38 1 -38 -2 2 -24 -6 -30 -43 -30
l-42 0 6 -48 c3 -26 1 -55 -4 -63 -6 -10 -9 -7 -9 12 0 27 -16 39 -51 39 -26
0 -25 37 1 45 20 6 28 35 10 35 -5 0 -10 7 -10 15 0 24 -19 17 -26 -10z m223
-57 c-3 -8 -6 -5 -6 6 -1 11 2 17 5 13 3 -3 4 -12 1 -19z m-27 -28 c0 -5 -7
-10 -15 -10 -8 0 -15 5 -15 10 0 6 7 10 15 10 8 0 15 -4 15 -10z m-240 -30 c0
-5 -16 -10 -35 -10 -19 0 -35 5 -35 10 0 6 16 10 35 10 19 0 35 -4 35 -10z
m110 -35 c0 -8 -7 -15 -15 -15 -26 0 -18 20 13 29 1 1 2 -6 2 -14z m-110 -25
c0 -5 -4 -10 -10 -10 -5 0 -10 5 -10 10 0 6 5 10 10 10 6 0 10 -4 10 -10z
m-1563 -422 c-3 -8 -6 -5 -6 6 -1 11 2 17 5 13 3 -3 4 -12 1 -19z m-47 -18 c0
-5 -7 -10 -16 -10 -8 0 -12 5 -9 10 3 6 10 10 16 10 5 0 9 -4 9 -10z m1760
-119 c0 -5 -7 -12 -16 -15 -14 -5 -15 -4 -4 9 14 17 20 19 20 6z m-3 -83 c-3
-7 -5 -2 -5 12 0 14 2 19 5 13 2 -7 2 -19 0 -25z m-387 -223 c0 -8 -4 -15 -10
-15 -5 0 -10 7 -10 15 0 8 5 15 10 15 6 0 10 -7 10 -15z"/>
<path d="M15420 18636 c0 -9 5 -16 10 -16 6 0 10 4 10 9 0 6 -4 13 -10 16 -5
3 -10 -1 -10 -9z"/>
<path d="M17260 18610 c0 -11 -7 -20 -15 -20 -8 0 -15 -7 -15 -16 0 -12 6 -15
23 -10 12 3 25 6 30 6 14 0 7 48 -8 54 -10 4 -15 -1 -15 -14z"/>
<path d="M17380 18610 c-18 -33 -13 -52 13 -44 26 8 37 22 30 40 -8 22 -32 24
-43 4z"/>
<path d="M17598 18553 c6 -2 18 -2 25 0 6 3 1 5 -13 5 -14 0 -19 -2 -12 -5z"/>
<path d="M17390 18530 c-41 -3 -70 -8 -65 -11 16 -10 178 -10 194 0 19 12 -37
17 -129 11z"/>
<path d="M17270 18520 c-12 -8 -10 -10 8 -10 13 0 20 4 17 10 -7 12 -6 12 -25
0z"/>
<path d="M17165 18490 c-8 -13 75 -13 95 0 11 7 0 10 -37 10 -28 0 -55 -4 -58
-10z"/>
<path d="M16816 18474 c-3 -9 -4 -20 0 -25 6 -11 181 -11 209 0 28 12 -55 24
-127 19 -38 -2 -52 0 -50 10 3 18 -25 15 -32 -4z"/>
<path d="M16752 18444 c-7 -8 -31 -14 -52 -14 -22 0 -40 -4 -40 -10 0 -6 26
-10 59 -10 33 0 63 5 66 10 3 6 2 10 -4 10 -5 0 -11 6 -13 14 -3 12 -5 12 -16
0z"/>
<path d="M16360 18261 c0 -6 5 -13 10 -16 6 -3 10 1 10 9 0 9 -4 16 -10 16 -5
0 -10 -4 -10 -9z"/>
<path d="M16169 18193 c-1 -5 -2 -15 -3 -23 0 -8 -7 -14 -13 -12 -7 1 -13 -7
-13 -18 0 -11 6 -20 13 -20 15 0 45 51 39 68 -4 13 -21 17 -23 5z"/>
<path d="M16401 18134 c0 -11 3 -14 6 -6 3 7 2 16 -1 19 -3 4 -6 -2 -5 -13z"/>
<path d="M15998 18108 c-2 -18 -15 -24 -73 -37 -38 -9 -69 -20 -67 -24 1 -4 2
-14 2 -22 0 -16 19 -12 59 14 14 9 34 14 46 13 14 -2 26 5 35 23 7 14 24 28
37 31 33 9 29 24 -6 24 -23 0 -30 -5 -33 -22z"/>
<path d="M18731 18030 c-30 -17 -63 -30 -74 -30 -10 0 -31 -9 -47 -20 -15 -11
-49 -29 -75 -40 -50 -21 -100 -57 -175 -124 -25 -23 -60 -52 -79 -66 -19 -14
-48 -39 -66 -56 -18 -16 -60 -52 -93 -79 -34 -26 -62 -51 -62 -54 0 -3 -17
-17 -37 -31 -52 -35 -181 -145 -220 -188 -18 -19 -33 -44 -33 -54 0 -22 -55
-75 -117 -115 -23 -14 -44 -32 -47 -40 -9 -22 21 -15 51 13 27 25 97 64 115
64 5 0 31 16 58 35 37 26 60 35 90 35 29 0 38 4 34 14 -9 23 22 26 60 5 31
-16 36 -17 36 -4 0 12 4 13 19 5 41 -21 105 0 87 28 -3 6 0 15 8 21 7 6 19 32
26 56 7 25 16 45 21 45 5 0 17 15 26 33 24 46 85 127 95 127 4 0 8 5 8 11 0
12 47 65 100 113 181 164 277 246 287 246 10 0 73 62 73 73 0 12 -13 8 -69
-23z"/>
<path d="M18415 18032 c-16 -10 -31 -20 -33 -24 -2 -5 -10 -8 -18 -8 -35 0
-194 -80 -194 -97 0 -7 -8 -13 -18 -13 -11 0 -27 -9 -37 -20 -10 -11 -26 -20
-37 -20 -10 0 -18 -6 -18 -14 0 -8 -11 -17 -25 -20 -14 -4 -25 -11 -25 -16 0
-12 37 -13 44 -1 3 5 18 12 33 16 40 9 170 72 221 106 24 16 45 29 47 29 6 0
67 43 93 65 41 36 21 46 -33 17z"/>
<path d="M15930 17995 c0 -8 5 -15 10 -15 6 0 10 7 10 15 0 8 -4 15 -10 15 -5
0 -10 -7 -10 -15z"/>
<path d="M15660 17860 c0 -5 5 -10 10 -10 6 0 10 5 10 10 0 6 -4 10 -10 10 -5
0 -10 -4 -10 -10z"/>
<path d="M15620 17820 c0 -5 5 -10 10 -10 6 0 10 5 10 10 0 6 -4 10 -10 10 -5
0 -10 -4 -10 -10z"/>
<path d="M15380 17614 c0 -9 5 -14 12 -12 18 6 21 28 4 28 -9 0 -16 -7 -16
-16z"/>
<path d="M15116 17521 c-4 -7 -5 -15 -2 -18 9 -9 19 4 14 18 -4 11 -6 11 -12
0z"/>
<path d="M18368 17438 c-21 -21 -28 -39 -28 -68 0 -24 -6 -42 -15 -47 -10 -6
-16 -27 -17 -63 -2 -30 -6 -57 -9 -60 -4 -3 -9 -18 -13 -35 -5 -25 -2 -32 19
-42 20 -9 28 -8 40 4 9 8 23 12 35 8 23 -7 22 -19 21 194 0 73 -1 134 -3 136
-2 1 -15 -11 -30 -27z"/>
<path d="M14799 17299 c-9 -6 -1 -9 24 -9 20 0 37 4 37 9 0 11 -44 11 -61 0z"/>
<path d="M14615 17230 c3 -5 15 -10 26 -10 10 0 19 5 19 10 0 6 -12 10 -26 10
-14 0 -23 -4 -19 -10z"/>
<path d="M14260 17090 c0 -13 11 -13 30 0 12 8 11 10 -7 10 -13 0 -23 -4 -23
-10z"/>
<path d="M14133 17060 c-47 -7 -58 -14 -48 -29 9 -16 25 -13 25 4 0 12 8 14
40 9 26 -4 40 -3 40 4 0 17 -11 19 -57 12z"/>
<path d="M13145 16681 c6 -11 45 -10 45 1 0 4 -12 8 -26 8 -14 0 -23 -4 -19
-9z"/>
<path d="M12959 16619 c-12 -8 -11 -11 1 -19 22 -14 50 -12 50 4 0 17 -33 27
-51 15z"/>
<path d="M8990 15522 c0 -17 42 -42 69 -42 20 0 31 -6 34 -17 3 -13 5 -14 6
-3 1 8 15 23 31 32 50 29 37 38 -55 38 -47 0 -85 -3 -85 -8z"/>
<path d="M9180 15509 c0 -5 5 -7 10 -4 6 3 10 8 10 11 0 2 -4 4 -10 4 -5 0
-10 -5 -10 -11z"/>
<path d="M8860 15480 c0 -5 10 -10 23 -10 18 -1 19 -2 6 -10 -19 -11 -14 -76
7 -84 8 -3 14 1 14 10 0 15 8 26 43 65 28 31 20 39 -38 39 -30 0 -55 -4 -55
-10z"/>
<path d="M9150 15449 c0 -38 24 -35 28 4 2 19 -1 27 -12 27 -11 0 -16 -10 -16
-31z"/>
<path d="M8741 15451 c-10 -6 -6 -11 15 -20 25 -10 26 -11 4 -6 -43 8 -132 -6
-126 -20 3 -10 -11 -13 -52 -13 -31 -1 -66 -1 -77 -1 -21 -1 -49 -47 -35 -56
4 -3 6 -13 4 -23 -3 -9 2 -26 10 -37 16 -22 14 -24 31 31 4 12 8 14 19 5 7 -6
21 -8 30 -5 11 4 25 -1 37 -15 11 -11 29 -21 39 -21 13 0 20 -7 20 -20 0 -15
7 -20 25 -20 23 0 25 4 25 40 0 38 -2 40 -29 40 -36 0 -61 9 -61 22 0 6 24 9
58 7 79 -3 92 -1 92 15 0 8 15 17 35 20 26 5 35 12 35 26 0 11 3 19 8 19 19
-3 22 3 12 21 -8 16 -21 20 -58 20 -26 0 -53 -4 -61 -9z"/>
<path d="M9252 15355 c0 -16 2 -22 5 -12 2 9 2 23 0 30 -3 6 -5 -1 -5 -18z"/>
<path d="M8807 15343 c-8 -12 4 -28 26 -36 15 -6 18 -3 15 15 -3 23 -31 37
-41 21z"/>
<path d="M10383 15343 c-20 -8 -15 -23 7 -23 11 0 20 7 20 15 0 15 -6 17 -27
8z"/>
<path d="M9020 15310 c0 -5 7 -10 15 -10 8 0 15 5 15 10 0 6 -7 10 -15 10 -8
0 -15 -4 -15 -10z"/>
<path d="M10443 15313 c-13 -2 -23 -7 -23 -10 0 -8 44 -42 56 -43 7 0 14 14
16 30 5 31 2 33 -49 23z"/>
<path d="M8526 15273 c-9 -9 -7 -43 2 -43 16 1 54 27 46 32 -21 11 -42 16 -48
11z"/>
<path d="M10537 15263 c-16 -15 -6 -33 18 -33 17 0 25 -6 25 -17 0 -20 17 -74
38 -123 9 -19 19 -57 23 -84 9 -51 15 -64 25 -53 17 17 -1 137 -23 150 -9 6
-11 20 -7 45 5 33 1 42 -33 80 -38 41 -53 49 -66 35z"/>
<path d="M9740 15234 l-25 -14 29 2 c16 2 31 9 34 16 5 16 -7 15 -38 -4z"/>
<path d="M8613 15221 c-15 -16 -27 -21 -42 -16 -17 5 -21 2 -21 -19 0 -21 4
-25 31 -24 34 1 63 34 57 65 -3 15 -5 15 -25 -6z"/>
<path d="M9140 15170 c-38 -6 -33 -7 35 -8 54 0 72 3 55 8 -29 9 -30 9 -90 0z"/>
<path d="M8810 15145 c-11 -13 -7 -15 21 -16 19 0 57 -2 86 -3 29 -2 58 1 65
5 8 5 -13 9 -49 9 -76 0 -74 0 -94 11 -12 6 -21 4 -29 -6z"/>
<path d="M10128 14753 c7 -3 16 -2 19 1 4 3 -2 6 -13 5 -11 0 -14 -3 -6 -6z"/>
<path d="M10200 14735 c-11 -13 -9 -15 15 -15 16 0 25 5 23 12 -7 19 -24 20
-38 3z"/>
</g>
</svg>
