<?xml version="1.0" standalone="no"?>
<!DOCTYPE svg PUBLIC "-//W3C//DTD SVG 20010904//EN"
 "http://www.w3.org/TR/2001/REC-SVG-20010904/DTD/svg10.dtd">
<svg version="1.0" xmlns="http://www.w3.org/2000/svg"
 width="80%" height="70.333%" viewBox="0 0 3000.000000 3000.000000"
 preserveAspectRatio="xMidYMid meet">

<g transform="translate(0.000000,3000.000000) scale(0.100000,-0.100000)"
fill="red" stroke="none">
<path d="M15926 26401 c-3 -5 -48 -12 -98 -16 -302 -22 -583 -79 -790 -160
-213 -84 -312 -128 -400 -178 -51 -30 -136 -78 -188 -107 -87 -49 -164 -102
-355 -247 -128 -97 -380 -344 -517 -508 -174 -208 -361 -485 -473 -700 -48
-93 -91 -174 -95 -180 -3 -5 -20 -44 -38 -85 -101 -244 -148 -381 -205 -595
-61 -225 -73 -285 -112 -555 -15 -111 -40 -515 -31 -528 3 -5 10 -84 16 -178
6 -93 17 -205 25 -249 36 -196 45 -249 65 -346 11 -57 27 -124 34 -149 8 -25
26 -90 41 -145 87 -319 326 -974 470 -1289 7 -17 26 -60 40 -96 15 -36 40 -93
56 -128 16 -35 29 -65 29 -67 0 -2 13 -32 29 -67 16 -35 55 -121 86 -193 32
-71 72 -161 90 -200 18 -38 42 -92 55 -120 76 -169 510 -1116 570 -1245 71
-152 112 -240 163 -350 54 -117 164 -347 343 -715 29 -60 85 -170 124 -244 39
-74 69 -140 66 -147 -3 -7 -30 -15 -63 -19 -32 -3 -123 -15 -203 -26 -80 -10
-172 -19 -204 -19 -61 0 -121 -9 -296 -43 -58 -11 -132 -22 -165 -23 -58 -3
-59 -3 -30 11 17 8 24 14 18 15 -19 0 -17 60 2 60 8 0 15 7 15 15 0 8 -9 15
-20 15 -11 0 -20 4 -20 9 0 5 -10 13 -22 17 -13 4 -26 11 -30 17 -13 21 -238
10 -463 -23 -89 -13 -277 -45 -450 -76 -133 -24 -494 -99 -670 -139 -166 -39
-209 -45 -217 -32 -13 21 -9 28 22 38 17 6 30 16 30 22 0 7 -83 66 -183 132
-458 300 -833 550 -839 559 -15 21 -8 36 20 41 64 14 136 41 140 52 7 25 -48
24 -148 -3 -99 -26 -104 -26 -117 -8 -29 40 -17 48 130 79 79 17 88 24 63 44
-11 9 -38 6 -123 -14 -59 -14 -135 -32 -168 -40 -199 -46 -286 -67 -335 -79
-30 -8 -73 -17 -95 -21 -53 -9 -65 -21 -65 -61 0 -28 7 -38 46 -65 45 -31 48
-31 98 -21 215 47 256 53 278 41 44 -23 556 -368 563 -379 12 -20 -26 -22
-113 -6 -48 10 -109 21 -137 26 -27 5 -84 16 -125 24 -41 8 -115 22 -165 31
-49 9 -110 20 -135 25 -25 5 -83 16 -130 24 -47 9 -170 32 -275 52 -104 19
-215 39 -245 44 -30 5 -75 14 -100 19 -153 33 -288 52 -324 47 -46 -7 -63 -11
-479 -111 -81 -19 -159 -35 -172 -35 -36 0 -58 -38 -45 -76 12 -34 85 -87 110
-79 31 9 270 55 290 55 11 0 73 -37 138 -82 64 -45 164 -114 222 -154 496
-345 605 -423 605 -435 0 -15 -42 -31 -130 -51 l-60 -13 -3 -40 c-3 -38 0 -43
42 -73 24 -18 53 -32 64 -32 10 0 133 29 273 64 140 35 265 66 279 68 62 13
186 50 197 60 52 43 -67 27 -375 -48 -257 -63 -362 -78 -362 -51 0 26 131 65
595 175 83 19 95 27 74 48 -15 14 -27 12 -135 -15 -156 -41 -167 -40 -239 12
-33 24 -210 146 -392 271 -183 125 -333 231 -333 236 0 17 34 19 103 6 40 -8
146 -29 237 -46 91 -17 197 -37 235 -45 39 -8 108 -21 155 -29 47 -9 145 -27
218 -41 72 -14 192 -36 265 -50 72 -14 170 -32 217 -41 47 -8 117 -22 155 -29
39 -8 135 -26 215 -40 180 -33 195 -37 195 -55 0 -15 -19 -23 -160 -65 -129
-38 -253 -85 -266 -101 -21 -25 17 -27 209 -9 346 33 755 19 1027 -34 28 -5
78 -15 112 -22 101 -19 99 -28 -24 -102 -402 -243 -639 -535 -682 -842 -10
-66 0 -216 18 -291 24 -95 105 -252 178 -342 19 -23 33 -49 30 -56 -3 -7 -74
-32 -159 -55 -163 -45 -270 -78 -383 -118 -272 -96 -324 -115 -360 -129 -22
-9 -49 -20 -60 -24 -11 -4 -37 -15 -58 -24 -21 -9 -42 -16 -47 -16 -5 0 -39
-14 -77 -31 -115 -52 -126 -57 -178 -79 -151 -63 -543 -260 -735 -368 -447
-253 -769 -522 -902 -753 -31 -53 -68 -115 -82 -137 -25 -40 -118 -222 -149
-292 -87 -195 -176 -479 -177 -566 0 -72 12 -79 142 -78 62 1 154 9 203 18
374 71 645 137 850 208 241 82 337 120 414 163 47 26 116 63 154 82 65 33 96
54 287 193 74 54 330 246 485 364 209 160 662 472 853 589 47 29 101 62 121
74 20 13 69 41 109 64 39 22 70 45 66 50 -3 5 5 9 17 9 12 0 38 12 58 28 19
15 45 30 56 34 16 5 17 6 3 7 -10 1 -18 6 -18 12 0 7 7 8 18 4 9 -4 27 -10 39
-12 12 -3 28 -11 34 -19 6 -8 19 -14 29 -14 9 0 101 41 204 90 103 50 199 93
214 96 16 3 50 -3 82 -16 287 -114 832 -258 1175 -310 269 -40 338 -50 465
-64 629 -68 1430 -67 2006 4 45 6 88 8 95 5 8 -3 62 -69 120 -148 211 -282
423 -619 720 -1142 208 -368 305 -515 434 -661 147 -166 339 -317 470 -370 50
-20 149 -64 220 -99 181 -86 228 -108 320 -145 44 -18 94 -38 110 -45 17 -7
64 -25 105 -39 41 -15 91 -33 110 -41 19 -7 76 -25 125 -40 50 -15 106 -34
127 -42 20 -8 42 -13 49 -11 7 2 -43 23 -111 45 -139 46 -412 147 -535 198
-257 106 -559 269 -590 318 -11 17 -71 74 -133 127 -62 52 -142 131 -179 175
-37 44 -74 86 -81 94 -15 15 -157 229 -178 266 -6 11 -43 75 -82 143 -40 68
-72 125 -72 128 0 3 -8 17 -19 32 -34 49 -121 202 -121 212 0 6 -4 10 -10 10
-5 0 -10 5 -10 11 0 9 -80 147 -121 209 -5 8 -12 23 -15 33 -4 9 -10 17 -13
17 -4 0 -17 19 -30 43 -27 53 -43 77 -58 95 -7 7 -13 20 -13 28 0 8 -4 14 -9
14 -5 0 -11 8 -15 18 -6 20 -25 50 -43 70 -7 7 -13 18 -13 23 0 5 -11 22 -25
37 -14 15 -25 37 -25 49 0 13 -5 22 -12 20 -7 -1 -13 7 -14 18 -2 45 -5 51
-15 30 -8 -17 -9 -15 -5 9 3 21 -1 30 -14 33 -13 4 -17 12 -15 31 2 15 2 21
-1 15 -7 -15 -34 -18 -34 -4 0 5 9 13 20 16 14 4 20 15 20 36 0 22 -4 28 -12
23 -9 -5 -9 -3 1 9 7 9 17 14 22 11 5 -3 6 1 3 9 -3 8 2 17 10 20 9 4 16 13
16 20 0 16 41 37 71 37 11 0 28 7 36 16 9 8 24 13 34 11 10 -3 30 7 48 24 17
15 38 26 45 23 8 -3 16 -2 19 3 6 9 -10 12 -71 14 -17 0 -34 4 -36 8 -5 7 32
13 86 15 14 1 24 4 22 8 -3 4 8 10 23 14 86 20 262 66 283 73 14 5 72 24 130
41 303 93 573 201 626 251 11 10 24 19 28 19 16 0 231 113 321 168 283 174
496 388 592 593 62 132 78 201 78 344 0 163 -18 226 -117 414 -65 122 -79 142
-177 240 -119 120 -216 197 -371 293 -173 107 -245 145 -291 152 -24 4 -53 13
-64 20 -31 20 -238 105 -358 147 -420 148 -967 271 -1445 326 -29 3 -55 9 -57
14 -6 8 3 29 139 317 47 101 86 185 86 187 0 2 15 36 34 77 18 40 45 101 60
135 14 35 37 86 50 115 132 291 419 973 700 1663 32 77 63 154 71 170 17 41
232 580 290 730 25 66 55 140 65 165 26 64 189 504 249 670 74 210 206 605
224 675 3 11 30 102 61 203 66 217 166 624 191 772 9 58 23 137 30 175 13 70
28 214 44 417 10 132 -4 512 -23 633 -8 50 -20 126 -27 170 -13 86 -30 156
-79 330 -18 61 -34 121 -38 135 -3 14 -44 115 -91 225 -115 267 -225 446 -407
665 -76 90 -156 181 -178 201 -23 20 -66 58 -97 86 -150 134 -252 209 -444
330 -237 147 -287 174 -470 250 -257 108 -384 153 -481 173 -27 5 -76 16 -109
24 -292 68 -337 75 -540 87 -99 5 -188 14 -197 19 -22 12 -85 13 -92 1z m1544
-669 c173 -37 265 -70 438 -158 79 -41 252 -165 252 -181 0 -7 6 -13 13 -13
12 0 74 -61 120 -118 35 -44 13 -90 -26 -54 -40 36 -161 93 -232 110 -36 9
-85 29 -125 51 -40 22 -59 29 -110 41 -30 7 -64 18 -75 25 -11 6 -40 18 -65
25 -25 8 -49 17 -55 21 -5 4 -28 10 -50 14 -49 8 -106 26 -122 38 -7 5 -16 6
-22 3 -5 -3 -31 0 -57 8 -66 20 -232 49 -268 48 -16 -1 -35 3 -41 8 -7 6 -41
12 -76 14 -135 9 -214 19 -226 29 -17 13 -16 37 1 37 8 0 17 6 19 13 4 9 8 8
16 -3 10 -13 15 -11 34 11 30 34 104 55 207 58 47 1 87 4 89 7 14 13 233 -7
361 -34z m-577 -925 c37 -40 101 -124 141 -187 223 -350 321 -763 294 -1241
-6 -111 -14 -172 -49 -374 -16 -95 -90 -334 -145 -472 -243 -606 -716 -1137
-1228 -1378 -293 -138 -477 -183 -781 -192 -191 -6 -180 -11 -281 135 -186
268 -297 598 -329 983 -39 468 81 1009 327 1470 198 374 471 695 789 932 65
48 120 87 124 87 3 0 22 11 43 23 104 66 315 166 417 199 112 35 276 70 370
79 60 6 112 13 115 16 3 2 32 2 65 -2 59 -6 61 -7 128 -78z m-6108 -7636 c0
-21 -57 -51 -137 -73 -73 -20 -88 -18 -88 11 0 27 17 37 100 60 85 22 125 23
125 2z m-1461 -330 c19 -30 -31 -61 -139 -88 -58 -14 -68 -14 -81 -2 -25 26 5
47 106 73 113 29 107 28 114 17z m4606 -375 c0 -8 -51 -13 -56 -5 -3 5 9 9 25
9 17 0 31 -2 31 -4z m-123 -32 c-3 -3 -12 -4 -19 -1 -8 3 -5 6 6 6 11 1 17 -2
13 -5z m1377 -226 c41 -62 90 -130 108 -151 22 -26 29 -40 21 -48 -6 -6 -64
-13 -129 -15 -66 -3 -146 -9 -179 -14 -116 -17 -190 -30 -235 -41 -25 -6 -65
-15 -90 -20 -111 -25 -319 -84 -368 -105 -18 -8 -44 -14 -57 -14 -27 0 -42 16
-23 23 8 3 6 6 -4 6 -22 1 -23 17 -2 39 15 14 15 16 -6 24 -12 4 -33 5 -46 2
-18 -5 -24 -2 -24 10 0 9 7 16 15 16 8 0 15 5 15 10 0 6 7 10 15 10 9 0 15 9
15 24 0 37 10 56 31 56 10 0 19 -4 19 -10 0 -24 39 -8 49 20 5 17 17 30 26 30
9 0 13 5 9 11 -4 8 3 9 24 4 24 -5 35 -2 49 14 12 14 29 21 55 21 20 0 40 5
44 12 10 16 -23 37 -49 30 -12 -3 -20 -2 -17 1 10 10 71 18 92 11 17 -5 18 -8
7 -16 -11 -8 -10 -9 3 -5 9 3 19 1 21 -6 2 -7 8 -8 13 -3 5 5 4 11 -3 13 -22
8 -14 23 13 23 14 0 23 4 20 9 -6 10 49 17 202 27 110 7 130 18 98 53 -32 35
-22 42 79 54 17 2 49 5 72 6 l41 1 76 -112z m1821 72 c216 -34 249 -40 290
-49 22 -6 76 -18 120 -27 329 -70 775 -213 775 -247 0 -8 -36 -25 -87 -42 -49
-15 -116 -41 -151 -57 -98 -46 -299 -118 -328 -118 -7 0 -86 24 -176 54 -268
89 -487 140 -806 187 -50 7 -86 17 -89 25 -2 7 39 79 92 160 l97 146 72 -7
c39 -3 125 -15 191 -25z m-3251 -236 c9 -24 -22 -54 -56 -54 -28 0 -37 20 -20
46 17 26 67 31 76 8z m406 -90 c0 -8 -7 -14 -15 -14 -15 0 -21 21 -9 33 10 9
24 -2 24 -19z m-615 -129 c42 -15 302 -130 349 -155 28 -14 51 -29 53 -35 1
-5 -37 -35 -84 -65 -100 -64 -228 -180 -289 -262 -122 -166 -131 -378 -23
-552 16 -27 28 -55 25 -62 -3 -7 -22 -16 -43 -19 -21 -3 -52 -8 -70 -11 -18
-3 -39 -11 -47 -19 -8 -8 -27 -15 -43 -15 -16 0 -55 -7 -86 -15 -32 -8 -71
-15 -87 -15 -16 0 -57 -6 -92 -14 -35 -8 -88 -17 -119 -21 -51 -6 -59 -4 -88
21 -68 57 -163 215 -195 326 -25 89 -21 223 10 316 41 125 95 205 218 327 115
115 248 212 390 285 l76 40 63 -24 c34 -13 71 -27 82 -31z m635 25 c0 -5 -4
-10 -10 -10 -5 0 -10 5 -10 10 0 6 5 10 10 10 6 0 10 -4 10 -10z m1357 -28
c146 -116 217 -146 348 -146 110 -1 200 26 385 118 116 57 128 61 170 55 25
-4 101 -15 170 -24 216 -29 555 -109 677 -160 40 -17 43 -40 6 -50 -16 -3 -71
-27 -123 -52 -158 -76 -248 -108 -289 -100 -14 2 -69 16 -121 31 -278 77 -711
128 -964 112 -60 -4 -162 -7 -227 -7 -202 1 -422 -41 -718 -138 -135 -44 -184
-52 -174 -25 4 10 -1 17 -16 21 -11 3 -21 9 -21 14 0 5 -7 9 -16 9 -10 0 -14
6 -10 15 5 14 -5 20 -27 16 -4 -1 -3 8 3 19 6 11 8 25 5 30 -10 16 15 83 39
102 11 10 38 18 59 18 20 0 37 4 37 8 0 10 99 40 160 48 25 3 59 10 75 15 43
12 273 39 338 39 53 0 56 1 59 27 3 30 26 40 90 42 28 1 47 -8 85 -37z m-1322
-32 c4 -6 -7 -10 -24 -10 -17 0 -31 5 -31 10 0 6 11 10 24 10 14 0 28 -4 31
-10z m-85 -24 c0 -2 -7 -6 -15 -10 -8 -3 -15 -1 -15 4 0 6 7 10 15 10 8 0 15
-2 15 -4z m4132 -57 c141 -71 234 -148 296 -245 25 -40 32 -61 32 -102 0 -61
-8 -59 132 -33 57 11 147 27 201 37 l99 18 18 -24 c31 -40 76 -141 91 -200 18
-76 16 -202 -5 -275 -23 -80 -78 -186 -131 -255 -128 -167 -372 -343 -644
-466 -97 -43 -107 -46 -135 -34 -43 17 -70 14 -114 -13 -115 -72 -335 -152
-542 -197 -30 -6 -84 -18 -120 -26 -36 -9 -90 -19 -120 -24 -30 -5 -98 -17
-150 -25 -135 -23 -194 -28 -235 -21 -26 5 -34 10 -27 19 5 7 6 21 1 32 -4 11
-8 15 -8 8 -1 -7 -8 -10 -16 -6 -9 3 -14 8 -11 11 9 8 -14 42 -29 42 -26 0
-16 17 18 31 17 7 36 18 40 23 6 8 10 7 14 -1 7 -19 36 -16 29 2 -3 8 -1 15 5
15 6 0 7 5 4 10 -9 14 7 12 28 -4 13 -10 14 -15 6 -18 -8 -3 -9 -7 -3 -10 5
-4 17 6 26 22 15 27 15 28 0 23 -14 -5 -15 -4 -4 8 7 7 36 19 65 25 101 23
304 80 352 99 17 7 48 18 70 25 22 6 54 18 72 26 17 8 42 14 57 14 14 0 29 6
33 13 4 7 25 21 47 32 21 11 50 31 65 45 14 14 51 39 81 54 188 97 375 263
443 392 81 157 86 286 17 439 -11 24 -20 50 -20 58 0 19 -91 144 -132 182 -53
50 -146 125 -153 125 -6 0 -71 45 -90 63 -6 6 3 7 25 3 19 -3 45 -16 58 -28
17 -17 25 -19 31 -10 5 9 17 11 34 6 21 -5 27 -2 27 10 0 12 -10 16 -40 16
-22 0 -40 5 -40 10 0 6 -7 10 -15 10 -8 0 -15 8 -15 18 0 21 68 51 79 35 3 -6
18 -12 33 -15 19 -4 25 -1 21 9 -4 9 4 13 25 13 25 0 30 4 29 20 -1 23 -27 28
-27 5 0 -8 -4 -15 -9 -15 -5 0 -16 -3 -25 -6 -11 -4 -16 -1 -16 10 0 9 5 16
10 16 6 0 10 7 10 15 0 27 47 16 152 -36z m-3774 -46 c-3 -32 -37 -43 -57 -20
-15 18 10 47 40 47 16 0 20 -6 17 -27z m3408 2 c7 -17 34 -21 34 -5 0 6 5 10
10 10 6 0 10 -7 10 -15 0 -11 -12 -15 -45 -15 -48 0 -48 0 -39 24 8 20 23 21
30 1z m-1831 -145 c105 -6 237 -17 295 -25 128 -19 332 -64 344 -75 11 -11
-11 -40 -29 -40 -7 0 -38 -14 -70 -31 -65 -35 -73 -35 -225 -1 -189 42 -345
55 -584 48 -122 -3 -228 -6 -236 -7 -91 -8 -447 -94 -492 -119 -23 -13 -71
-13 -63 0 3 6 2 10 -2 10 -14 0 -13 42 0 59 29 35 157 77 328 106 130 22 139
23 260 24 105 1 107 1 113 26 6 22 11 24 79 28 39 1 77 4 82 5 6 1 96 -3 200
-8z m-1669 -95 c94 -52 177 -101 183 -109 9 -10 -5 -29 -64 -89 -119 -119
-158 -232 -120 -346 19 -60 10 -81 -34 -81 -15 0 -37 -8 -51 -17 l-24 -17 25
-7 c14 -3 94 -51 179 -106 161 -104 380 -225 464 -257 43 -16 55 -17 101 -6
55 13 84 11 210 -14 222 -44 358 -58 611 -61 l252 -2 75 -54 c84 -61 106 -87
85 -100 -7 -5 -153 -9 -324 -9 -308 0 -490 11 -734 46 -200 28 -468 88 -535
119 -27 13 -77 33 -110 45 -300 108 -509 224 -604 333 -9 10 -30 24 -47 32
-34 14 -82 77 -116 152 -17 38 -22 68 -22 144 -1 91 1 99 37 172 27 55 59 98
108 148 81 81 223 179 258 179 14 0 102 -43 197 -95z m592 -17 c7 -7 12 -20
12 -30 0 -13 -8 -18 -30 -18 -25 0 -30 4 -30 23 0 37 24 49 48 25z m2567 -37
c3 -5 2 -12 -3 -15 -5 -3 -9 1 -9 9 0 17 3 19 12 6z m-175 -11 c0 -5 -4 -10
-10 -10 -5 0 -10 5 -10 10 0 6 5 10 10 10 6 0 10 -4 10 -10z m200 -25 c0 -8
-2 -15 -4 -15 -2 0 -6 7 -10 15 -3 8 -1 15 4 15 6 0 10 -7 10 -15z m-326 -4
c17 -6 17 -8 3 -14 -8 -3 -21 1 -27 9 -13 15 -6 17 24 5z m196 -22 c11 -8 12
-12 3 -16 -18 -7 -16 -23 2 -23 8 0 15 5 15 10 0 20 43 9 65 -16 13 -16 28
-24 35 -19 8 5 5 13 -12 29 l-23 21 33 3 c18 2 30 8 27 13 -4 5 -1 9 6 9 7 0
9 -10 7 -25 -3 -14 -1 -25 3 -25 5 0 9 5 9 11 0 5 5 7 10 4 6 -3 10 -15 10
-26 0 -11 7 -28 16 -37 16 -15 15 -52 -2 -109 -9 -31 2 -30 181 16 135 36 152
38 167 24 41 -37 49 -202 13 -287 -61 -145 -222 -295 -417 -390 -90 -44 -90
-44 -133 -29 l-44 14 -67 -40 c-110 -67 -207 -99 -459 -155 -38 -8 -92 -18
-120 -21 -27 -3 -74 -8 -102 -12 -34 -3 -53 -2 -53 5 0 6 6 13 13 15 6 3 2 6
-10 6 -25 1 -31 16 -10 24 6 3 0 6 -15 6 -16 1 -29 6 -29 11 -5 41 -3 45 26
48 37 4 293 79 318 93 10 6 31 7 47 4 16 -3 31 -2 35 4 3 6 -1 11 -9 11 -17 0
-31 42 -22 66 4 9 15 14 28 12 19 -2 23 -8 20 -36 -1 -23 2 -32 13 -32 8 0 15
3 15 8 0 4 25 20 56 36 31 16 62 39 70 51 8 12 36 36 62 53 70 45 159 143 189
209 23 49 27 73 29 158 1 89 -1 103 -22 137 -13 21 -24 40 -24 43 0 4 -31 37
-69 76 -63 62 -67 69 -44 69 18 0 24 -4 19 -15 -3 -9 0 -15 8 -15 8 0 16 5 18
11 4 13 48 3 48 -11 0 -5 -12 -13 -27 -18 -18 -7 -22 -11 -10 -11 9 -1 17 -5
17 -11 0 -5 6 -10 13 -10 7 0 21 -11 31 -25 21 -28 36 -32 36 -10 0 8 5 15 10
15 6 0 10 7 10 15 0 8 -7 15 -15 15 -8 0 -15 -7 -15 -15 0 -31 -18 -13 -24 24
-10 63 7 86 44 60z m-770 -17 c0 -5 -7 -9 -15 -9 -8 0 -15 4 -15 9 0 4 7 8 15
8 8 0 15 -4 15 -8z m-1708 -26 c4 -17 1 -23 -9 -19 -14 6 -18 43 -4 43 5 0 11
-11 13 -24z m1829 -24 c45 -27 71 -36 85 -31 18 6 17 8 -6 17 -23 10 -24 11
-3 11 23 1 83 -29 83 -41 0 -5 5 -8 11 -8 18 0 69 -57 69 -78 0 -11 7 -25 15
-32 19 -16 19 -70 0 -106 -32 -61 -16 -66 98 -33 39 12 87 24 105 26 31 5 32
4 32 -29 0 -84 -93 -207 -209 -275 -45 -27 -44 -27 -112 1 -11 5 -33 -7 -67
-36 -74 -63 -210 -113 -387 -142 -155 -25 -214 -32 -209 -24 3 4 -1 8 -8 8 -7
0 5 9 27 20 22 11 54 20 72 20 21 0 33 5 33 13 0 8 45 29 113 52 167 56 273
114 354 193 60 58 72 76 88 129 16 54 16 68 5 108 -14 51 -83 134 -144 176
-20 13 -36 29 -36 36 0 6 -9 9 -20 6 -12 -3 -22 1 -26 11 -3 9 -10 13 -15 10
-5 -3 -9 0 -9 6 0 6 -4 8 -10 5 -5 -3 -10 1 -10 9 0 23 8 21 81 -22z m-2027
-42 c31 -22 60 -40 64 -40 12 -1 52 -38 52 -48 0 -5 -12 -31 -26 -57 -20 -35
-27 -62 -28 -108 l-1 -62 -62 -16 c-34 -10 -67 -20 -72 -24 -18 -11 -12 -25
10 -25 12 0 80 -37 152 -82 185 -116 335 -188 518 -247 31 -10 52 -8 125 8 78
18 105 19 218 11 108 -8 135 -13 170 -34 55 -32 73 -53 58 -68 -25 -25 -592
33 -645 66 -12 8 -39 17 -59 20 -55 10 -272 83 -337 113 -119 56 -281 169
-281 197 0 6 -15 18 -32 26 -25 11 -37 27 -50 65 -34 95 2 204 96 294 30 28
59 51 64 51 5 0 34 -18 66 -40z m-1269 -617 c26 -14 138 -83 255 -159 19 -12
94 -57 165 -99 72 -43 160 -97 196 -121 37 -24 73 -44 81 -44 7 0 49 12 92 26
62 20 84 23 105 15 33 -13 211 -65 271 -80 339 -82 615 -121 1016 -142 222
-12 409 -8 760 17 l79 6 113 -102 c70 -63 112 -108 110 -118 -4 -23 -41 -28
-310 -46 -478 -32 -1003 -14 -1488 50 -130 17 -447 70 -500 84 -19 5 -69 16
-110 26 -110 24 -460 124 -495 141 -16 9 -37 21 -45 27 -8 7 -35 21 -60 31
-136 55 -438 203 -460 225 -11 11 -70 50 -75 50 -4 0 -13 6 -20 13 -33 28 -45
37 -53 37 -16 0 -76 60 -67 67 4 5 10 2 12 -4 3 -7 13 -13 24 -13 10 0 18 -5
17 -12 -2 -7 7 -17 20 -23 12 -5 22 -13 22 -17 0 -5 9 -8 19 -8 11 0 23 -4 26
-10 10 -15 35 -12 35 5 0 8 5 15 10 15 16 0 12 27 -5 34 -8 3 -15 10 -15 16 0
5 7 10 15 10 8 0 15 7 15 15 0 8 7 15 15 15 9 0 15 9 15 25 0 14 5 25 10 25 6
0 10 -7 10 -15 0 -23 27 -18 33 6 5 19 11 21 41 16 39 -6 57 15 28 33 -27 17
56 2 93 -17z m-302 -58 c-3 -9 -8 -14 -10 -11 -3 3 -2 9 2 15 9 16 15 13 8 -4z
m-53 -30 c0 -8 -4 -15 -10 -15 -5 0 -10 7 -10 15 0 8 5 15 10 15 6 0 10 -7 10
-15z m30 -25 c0 -5 -4 -10 -10 -10 -5 0 -10 5 -10 10 0 6 5 10 10 10 6 0 10
-4 10 -10z m30 -15 c0 -25 -14 -34 -24 -16 -8 12 3 41 15 41 5 0 9 -11 9 -25z
m3023 -2 c-7 -2 -21 -2 -30 0 -10 3 -4 5 12 5 17 0 24 -2 18 -5z m309 -138 c0
-5 -5 -11 -11 -13 -6 -2 -11 4 -11 13 0 9 5 15 11 13 6 -2 11 -8 11 -13z
m1118 -24 c0 -35 -12 -45 -46 -37 -43 11 -24 66 23 66 19 0 23 -5 23 -29z
m1039 -355 c10 -12 8 -19 -7 -34 -23 -23 -90 -38 -105 -23 -14 14 26 58 57 64
39 8 43 7 55 -7z m-1141 -493 c-10 -2 -28 -2 -40 0 -13 2 -5 4 17 4 22 1 32
-1 23 -4z m62 -8 c0 -8 -4 -15 -10 -15 -5 0 -10 7 -10 15 0 8 5 15 10 15 6 0
10 -7 10 -15z"/>
<path d="M14640 15650 c0 -5 7 -10 15 -10 8 0 15 5 15 10 0 6 -7 10 -15 10 -8
0 -15 -4 -15 -10z"/>
<path d="M18030 15660 c0 -5 7 -10 15 -10 8 0 15 5 15 10 0 6 -7 10 -15 10 -8
0 -15 -4 -15 -10z"/>
<path d="M17068 14023 c7 -3 16 -2 19 1 4 3 -2 6 -13 5 -11 0 -14 -3 -6 -6z"/>
<path d="M14013 14723 c9 -2 23 -2 30 0 6 3 -1 5 -18 5 -16 0 -22 -2 -12 -5z"/>
<path d="M16600 14315 c0 -8 4 -15 9 -15 5 0 11 7 15 15 3 9 0 15 -9 15 -8 0
-15 -7 -15 -15z"/>
<path d="M16900 15193 c0 -5 11 -18 24 -31 17 -15 27 -19 32 -11 3 6 1 15 -6
19 -7 4 -9 13 -6 19 5 7 -2 11 -18 11 -14 0 -26 -3 -26 -7z"/>
<path d="M16960 15134 c0 -8 5 -12 10 -9 6 3 10 10 10 16 0 5 -4 9 -10 9 -5 0
-10 -7 -10 -16z"/>
<path d="M23555 15773 c-47 -14 -125 -66 -125 -83 0 -4 48 -10 108 -13 116 -5
240 -34 376 -87 44 -17 84 -29 91 -27 7 3 9 23 5 58 l-5 54 -92 37 c-116 46
-229 78 -274 77 -19 0 -56 -7 -84 -16z"/>
<path d="M22352 15502 c-8 -23 -62 -75 -111 -109 -2 -2 -1 -6 2 -10 4 -3 33 2
65 12 l59 17 59 -32 c32 -18 136 -76 229 -128 94 -52 190 -106 215 -120 25
-14 62 -36 82 -49 21 -12 39 -23 42 -23 2 0 48 -25 102 -56 55 -31 122 -69
149 -84 28 -15 135 -76 239 -134 104 -58 191 -106 194 -106 3 0 13 -6 21 -14
14 -12 23 -13 70 0 85 22 97 39 43 67 -15 7 -88 48 -162 89 -74 42 -209 117
-300 168 -91 51 -183 102 -205 115 -22 12 -195 109 -385 215 -190 106 -349
196 -354 201 -19 18 -44 9 -54 -19z"/>
<path d="M23575 15515 c-3 -8 -7 -21 -9 -27 -8 -28 16 -59 70 -94 50 -32 59
-35 80 -24 50 27 39 60 -40 120 -55 41 -93 51 -101 25z"/>
<path d="M21995 15480 c-7 -12 55 -41 69 -33 11 7 -31 43 -50 43 -7 0 -16 -5
-19 -10z"/>
<path d="M24667 15313 c-4 -3 -7 -22 -7 -42 0 -33 7 -41 75 -94 41 -32 93 -78
117 -102 48 -50 68 -47 68 13 0 45 -30 84 -127 167 -69 59 -108 77 -126 58z"/>
<path d="M23904 15257 c-78 -52 -103 -71 -104 -79 0 -5 38 -8 84 -8 95 0 175
-21 293 -77 41 -19 78 -31 82 -27 4 5 6 33 3 62 l-4 53 -56 28 c-64 32 -205
81 -232 81 -10 0 -40 -15 -66 -33z"/>
<path d="M23562 14584 c-17 -12 -22 -24 -20 -47 2 -25 12 -37 50 -60 26 -16
51 -26 57 -22 18 11 13 100 -6 117 -29 25 -57 29 -81 12z"/>
<path d="M7265 11480 c-55 -16 -133 -37 -174 -48 -76 -21 -104 -37 -86 -50
172 -118 165 -115 188 -95 12 10 47 35 77 55 30 21 75 58 100 83 37 37 43 48
34 63 -16 24 -27 24 -139 -8z"/>
<path d="M6895 11274 c-15 -19 -66 -60 -113 -91 -103 -67 -93 -76 40 -38 l92
27 18 -22 c10 -12 18 -30 18 -39 0 -9 16 -86 35 -171 19 -85 51 -227 70 -315
20 -88 42 -187 49 -220 8 -33 20 -83 26 -112 12 -54 31 -80 50 -68 6 4 8 14 5
24 -6 15 -22 84 -45 191 -9 44 -21 98 -55 250 -28 126 -45 203 -55 245 -4 22
-15 69 -23 105 -8 36 -25 111 -37 168 -14 63 -28 102 -35 102 -7 0 -25 -16
-40 -36z"/>
<path d="M6477 11250 c-23 -33 -9 -76 38 -115 24 -19 45 -35 47 -35 2 0 3 28
0 63 -3 50 -8 66 -28 85 -31 27 -39 27 -57 2z"/>
<path d="M5025 10759 c-10 -19 -36 -53 -58 -76 -22 -24 -38 -45 -35 -49 4 -3
32 2 63 11 65 18 49 23 310 -85 83 -34 211 -86 285 -117 235 -95 229 -92 239
-132 10 -39 19 -84 52 -266 25 -142 32 -168 46 -172 19 -7 22 24 7 98 -17 92
-38 206 -60 329 -22 125 -36 171 -54 181 -8 5 -94 41 -190 80 -96 39 -256 105
-354 146 -228 94 -230 95 -251 52z"/>
<path d="M4627 10753 c-4 -3 -7 -23 -7 -44 0 -37 26 -74 70 -99 25 -14 21 102
-4 129 -19 21 -46 27 -59 14z"/>
<path d="M20038 10623 c6 -2 18 -2 25 0 6 3 1 5 -13 5 -14 0 -19 -2 -12 -5z"/>
<path d="M20148 10593 c7 -3 16 -2 19 1 4 3 -2 6 -13 5 -11 0 -14 -3 -6 -6z"/>
<path d="M3780 10418 c-12 -23 -41 -62 -63 -85 -46 -48 -44 -49 41 -28 l60 16
138 -56 c76 -31 152 -62 169 -70 16 -7 176 -74 355 -149 179 -74 519 -215 755
-314 237 -99 518 -216 625 -261 107 -44 201 -81 209 -81 10 0 12 12 6 57 -4
31 -9 62 -12 69 -4 12 -61 37 -363 161 -85 35 -164 67 -175 73 -11 5 -128 54
-260 108 -132 55 -361 150 -510 212 -148 62 -344 143 -435 181 -91 37 -237 97
-325 134 -88 37 -168 69 -177 72 -12 4 -23 -7 -38 -39z"/>
<path d="M3327 10403 c-4 -3 -7 -25 -7 -49 0 -36 5 -47 40 -78 22 -20 41 -36
43 -36 1 0 1 30 1 67 -1 56 -5 70 -24 85 -23 19 -42 23 -53 11z"/>
<path d="M6100 10353 c1 -5 7 -19 15 -33 8 -14 14 -39 15 -56 0 -37 19 -52 95
-76 41 -13 255 -100 400 -162 17 -7 116 -48 220 -91 105 -43 253 -104 330
-136 77 -32 142 -55 146 -51 9 9 -7 122 -18 133 -4 4 -93 42 -198 84 -104 42
-199 80 -210 84 -107 45 -450 184 -550 222 -55 22 -109 44 -120 49 -76 35
-125 48 -125 33z"/>
<path d="M22184 8996 c-60 -12 -99 -31 -137 -67 -31 -29 -11 -39 76 -39 181 0
366 -48 559 -144 48 -24 90 -41 93 -38 3 3 5 34 5 69 0 62 -1 63 -38 87 -55
34 -155 79 -247 111 -94 33 -217 41 -311 21z"/>
<path d="M21142 8693 c-7 -12 -12 -57 -12 -101 0 -105 23 -157 109 -243 136
-135 302 -222 514 -270 145 -33 477 -39 477 -10 0 15 -123 61 -218 81 -52 11
-140 35 -195 54 -56 18 -140 46 -187 61 -261 84 -451 248 -470 405 -5 42 -6
43 -18 23z"/>
<path d="M23276 8235 c-66 -10 -109 -23 -168 -53 -90 -45 -87 -52 30 -52 246
-1 431 -50 588 -158 70 -47 88 -66 113 -117 l18 -38 19 28 c72 111 -81 283
-335 375 -90 33 -125 35 -265 15z"/>
<path d="M22193 7758 c-28 -14 -41 -71 -22 -95 8 -9 106 -77 219 -151 113 -74
252 -166 309 -204 57 -37 106 -68 110 -68 24 1 28 18 18 82 l-10 66 -126 82
c-69 44 -201 130 -294 190 -92 61 -170 110 -175 109 -4 0 -17 -5 -29 -11z"/>
</g>
</svg>
